# xmcd
#
# Track frame offsets:
#	150
#	12637
#	22545
#	35487
#	46842
#	58512
#	72892
#	83885
#	96167
#	108250
#	121605
#	136190
#	146845
#	157390
#	169257
#	181030
#	194272
#	207222
#	218905
#	230680
#	240402
#	253637
#	265190
#	277507
#	289462
#	305615
#	317142
#	330235
#
# Disc length: 4532 seconds
#
# Revision: 5
# Processed by: cddbd v1.5.2PL0 Copyright (c) Steve Scherf et al.
# Submitted via: audiograbber 1.83.01
#
DISCID=8811b21c
DTITLE=Various Artist - The Ultimate Sun Blues Collection [CD 1 of 2)
DYEAR=1991
DGENRE=Blues
TTITLE0=Joe Hill Louis - Boogie In The Park
TTITLE1=Lost John Hunter and The Blind Bats - Cool Down Mama
TTITLE2=Sleepy John Estes - Runnin' Around
TTITLE3=Hotshot Love - Harmonica Jam
TTITLE4=Mose Vinson - Mistreatin' Boogie
TTITLE5=Sleepy John Estes - Registration Day Blues
TTITLE6=Howlin' Wolf - Highway Man
TTITLE7=Charlie Booker - Walked All Night
TTITLE8=Joe Hill Louis - We All Gotta Go Sometime
TTITLE9=Pinetop Perkins - Pinetops Boogie Woogie
TTITLE10=Howlin' Wolf - My Troubles And Me
TTITLE11=Houston Stokes - You'll Be Sorry
TTITLE12=Jimmy Deberry - Take A Little Chance
TTITLE13=Memphis Ma Rainy - Baby No. 10
TTITLE14=Sammy Lewis and Willie Johnson Combo - I Feel So Worried
TTITLE15=Walter Horton - Easy
TTITLE16=Howlin' Wolf - Everybody's In The Mood
TTITLE17=Joe Hill Louis - Hydramatic Woman
TTITLE18=Johnny O' Neal - Ugly Woman
TTITLE19=Sammy Lewis and Willie Johnson Combo - So Long Baby, Goodbye
TTITLE20=Jimmy Deberry - Before Long
TTITLE21=Tot Randolph - Blues Train
TTITLE22=Willie Nix - Prison Bound Blues
TTITLE23=Doctor Ross - Boogie Disease
TTITLE24=Johnny O' Neal - Dead Letter Blues
TTITLE25=Houston Boines - Carry My Business On
TTITLE26=Walter Horton - Walter' Instrumental
TTITLE27=Howlin' Wolf - Come Back Home
EXTD=
EXTT0=
EXTT1=
EXTT2=
EXTT3=
EXTT4=
EXTT5=
EXTT6=
EXTT7=
EXTT8=
EXTT9=
EXTT10=
EXTT11=
EXTT12=
EXTT13=
EXTT14=
EXTT15=
EXTT16=
EXTT17=
EXTT18=
EXTT19=
EXTT20=
EXTT21=
EXTT22=
EXTT23=
EXTT24=
EXTT25=
EXTT26=
EXTT27=
PLAYORDER=
